<mxfile host="app.diagrams.net" agent="Mozilla/5.0 (Windows NT 10.0; Win64; x64) AppleWebKit/537.36 (KHTML, like Gecko) Chrome/131.0.0.0 Safari/537.36" version="26.0.6">
  <diagram name="第 1 页" id="cCblOniskTBsl_r9CnlV">
    <mxGraphModel dx="-220" dy="738" grid="1" gridSize="10" guides="1" tooltips="1" connect="1" arrows="1" fold="1" page="1" pageScale="1" pageWidth="827" pageHeight="1169" math="0" shadow="0">
      <root>
        <mxCell id="0" />
        <mxCell id="1" parent="0" />
        <mxCell id="hAA6BeROHM1rtKqDLcVv-1" value="" style="group" vertex="1" connectable="0" parent="1">
          <mxGeometry x="1710" y="30" width="440" height="330" as="geometry" />
        </mxCell>
        <mxCell id="hAA6BeROHM1rtKqDLcVv-2" value="" style="rounded=0;whiteSpace=wrap;html=1;labelBackgroundColor=none;strokeColor=default;strokeWidth=1;fontSize=16;fontColor=#000000;" vertex="1" parent="hAA6BeROHM1rtKqDLcVv-1">
          <mxGeometry x="-10" y="-10" width="450" height="340" as="geometry" />
        </mxCell>
        <mxCell id="hAA6BeROHM1rtKqDLcVv-3" value="" style="rounded=0;whiteSpace=wrap;html=1;labelBackgroundColor=none;strokeColor=#000000;strokeWidth=1;fontSize=16;fontColor=#000000;dashed=1;" vertex="1" parent="hAA6BeROHM1rtKqDLcVv-1">
          <mxGeometry width="210" height="120" as="geometry" />
        </mxCell>
        <mxCell id="hAA6BeROHM1rtKqDLcVv-4" value="EP" style="rounded=0;whiteSpace=wrap;html=1;labelBackgroundColor=none;strokeColor=#b85450;strokeWidth=1;fontSize=16;fillColor=#f8cecc;gradientColor=#ea6b66;" vertex="1" parent="hAA6BeROHM1rtKqDLcVv-1">
          <mxGeometry x="60" y="10" width="40" height="40" as="geometry" />
        </mxCell>
        <mxCell id="hAA6BeROHM1rtKqDLcVv-5" value="EP" style="rounded=0;whiteSpace=wrap;html=1;labelBackgroundColor=none;strokeColor=#b85450;strokeWidth=1;fontSize=16;fillColor=#f8cecc;gradientColor=#ea6b66;" vertex="1" parent="hAA6BeROHM1rtKqDLcVv-1">
          <mxGeometry x="110" y="10" width="40" height="40" as="geometry" />
        </mxCell>
        <mxCell id="hAA6BeROHM1rtKqDLcVv-6" value="EP" style="rounded=0;whiteSpace=wrap;html=1;labelBackgroundColor=none;strokeColor=#b85450;strokeWidth=1;fontSize=16;fillColor=#f8cecc;gradientColor=#ea6b66;" vertex="1" parent="hAA6BeROHM1rtKqDLcVv-1">
          <mxGeometry x="160" y="10" width="40" height="40" as="geometry" />
        </mxCell>
        <mxCell id="hAA6BeROHM1rtKqDLcVv-7" value="EP" style="rounded=0;whiteSpace=wrap;html=1;labelBackgroundColor=none;strokeColor=#b85450;strokeWidth=1;fontSize=16;fillColor=#f8cecc;gradientColor=#ea6b66;" vertex="1" parent="hAA6BeROHM1rtKqDLcVv-1">
          <mxGeometry x="8" y="10" width="40" height="40" as="geometry" />
        </mxCell>
        <mxCell id="hAA6BeROHM1rtKqDLcVv-8" value="" style="group" vertex="1" connectable="0" parent="hAA6BeROHM1rtKqDLcVv-1">
          <mxGeometry x="20" y="70" width="172" height="40" as="geometry" />
        </mxCell>
        <mxCell id="hAA6BeROHM1rtKqDLcVv-9" value="" style="rounded=0;whiteSpace=wrap;html=1;fillColor=#f5f5f5;strokeColor=#666666;verticalAlign=middle;gradientColor=#b3b3b3;" vertex="1" parent="hAA6BeROHM1rtKqDLcVv-8">
          <mxGeometry width="172" height="40" as="geometry" />
        </mxCell>
        <mxCell id="hAA6BeROHM1rtKqDLcVv-10" value="" style="shadow=0;dashed=0;align=center;html=1;strokeWidth=1;shape=mxgraph.electrical.abstract.mux2;flipV=0;direction=east;flipH=0;fillColor=#fad9d5;strokeColor=#ae4132;" vertex="1" parent="hAA6BeROHM1rtKqDLcVv-8">
          <mxGeometry x="8" y="6.666666666666668" width="32" height="26.66666666666667" as="geometry" />
        </mxCell>
        <mxCell id="hAA6BeROHM1rtKqDLcVv-11" value="" style="shadow=0;dashed=0;align=center;html=1;strokeWidth=1;shape=mxgraph.electrical.abstract.mux2;flipV=0;direction=east;flipH=0;fillColor=#fad9d5;strokeColor=#ae4132;" vertex="1" parent="hAA6BeROHM1rtKqDLcVv-8">
          <mxGeometry x="52" y="6.666666666666668" width="32" height="26.66666666666667" as="geometry" />
        </mxCell>
        <mxCell id="hAA6BeROHM1rtKqDLcVv-12" value="" style="shadow=0;dashed=0;align=center;html=1;strokeWidth=1;shape=mxgraph.electrical.abstract.mux2;flipV=0;direction=east;flipH=0;fillColor=#fad9d5;strokeColor=#ae4132;" vertex="1" parent="hAA6BeROHM1rtKqDLcVv-8">
          <mxGeometry x="92" y="6.666666666666668" width="32" height="26.66666666666667" as="geometry" />
        </mxCell>
        <mxCell id="hAA6BeROHM1rtKqDLcVv-13" value="" style="shadow=0;dashed=0;align=center;html=1;strokeWidth=1;shape=mxgraph.electrical.abstract.mux2;flipV=0;direction=east;flipH=0;fillColor=#fad9d5;strokeColor=#ae4132;" vertex="1" parent="hAA6BeROHM1rtKqDLcVv-8">
          <mxGeometry x="132" y="6.666666666666668" width="32" height="26.66666666666667" as="geometry" />
        </mxCell>
        <mxCell id="hAA6BeROHM1rtKqDLcVv-14" style="edgeStyle=orthogonalEdgeStyle;rounded=0;orthogonalLoop=1;jettySize=auto;html=1;entryX=0.349;entryY=0;entryDx=0;entryDy=0;entryPerimeter=0;labelBackgroundColor=none;strokeColor=#FF0080;strokeWidth=1;fontSize=16;fontColor=#000000;startArrow=classic;startFill=1;endArrow=classic;endFill=1;" edge="1" parent="hAA6BeROHM1rtKqDLcVv-1" source="hAA6BeROHM1rtKqDLcVv-4" target="hAA6BeROHM1rtKqDLcVv-9">
          <mxGeometry relative="1" as="geometry" />
        </mxCell>
        <mxCell id="hAA6BeROHM1rtKqDLcVv-15" style="edgeStyle=orthogonalEdgeStyle;rounded=0;orthogonalLoop=1;jettySize=auto;html=1;entryX=0.64;entryY=-0.014;entryDx=0;entryDy=0;entryPerimeter=0;labelBackgroundColor=none;strokeColor=#FF0080;strokeWidth=1;fontSize=16;fontColor=#000000;startArrow=classic;startFill=1;endArrow=classic;endFill=1;" edge="1" parent="hAA6BeROHM1rtKqDLcVv-1" source="hAA6BeROHM1rtKqDLcVv-5" target="hAA6BeROHM1rtKqDLcVv-9">
          <mxGeometry relative="1" as="geometry" />
        </mxCell>
        <mxCell id="hAA6BeROHM1rtKqDLcVv-16" style="edgeStyle=orthogonalEdgeStyle;rounded=0;orthogonalLoop=1;jettySize=auto;html=1;entryX=0.93;entryY=-0.006;entryDx=0;entryDy=0;entryPerimeter=0;labelBackgroundColor=none;strokeColor=#FF0080;strokeWidth=1;fontSize=16;fontColor=#000000;startArrow=classic;startFill=1;endArrow=classic;endFill=1;" edge="1" parent="hAA6BeROHM1rtKqDLcVv-1" source="hAA6BeROHM1rtKqDLcVv-6" target="hAA6BeROHM1rtKqDLcVv-9">
          <mxGeometry relative="1" as="geometry" />
        </mxCell>
        <mxCell id="hAA6BeROHM1rtKqDLcVv-17" style="rounded=0;orthogonalLoop=1;jettySize=auto;html=1;labelBackgroundColor=none;strokeColor=#FF0080;strokeWidth=1;fontSize=16;fontColor=#000000;startArrow=classic;startFill=1;endArrow=classic;endFill=1;entryX=0.047;entryY=0.002;entryDx=0;entryDy=0;entryPerimeter=0;" edge="1" parent="hAA6BeROHM1rtKqDLcVv-1" source="hAA6BeROHM1rtKqDLcVv-7" target="hAA6BeROHM1rtKqDLcVv-9">
          <mxGeometry relative="1" as="geometry" />
        </mxCell>
        <mxCell id="hAA6BeROHM1rtKqDLcVv-18" value="" style="group" vertex="1" connectable="0" parent="1">
          <mxGeometry x="1930" y="30" width="210" height="120" as="geometry" />
        </mxCell>
        <mxCell id="hAA6BeROHM1rtKqDLcVv-19" value="" style="rounded=0;whiteSpace=wrap;html=1;labelBackgroundColor=none;strokeColor=#000000;strokeWidth=1;fontSize=16;fontColor=#000000;dashed=1;" vertex="1" parent="hAA6BeROHM1rtKqDLcVv-18">
          <mxGeometry width="210" height="120" as="geometry" />
        </mxCell>
        <mxCell id="hAA6BeROHM1rtKqDLcVv-20" value="EP" style="rounded=0;whiteSpace=wrap;html=1;labelBackgroundColor=none;strokeColor=#b85450;strokeWidth=1;fontSize=16;fillColor=#f8cecc;gradientColor=#ea6b66;" vertex="1" parent="hAA6BeROHM1rtKqDLcVv-18">
          <mxGeometry x="60" y="10" width="40" height="40" as="geometry" />
        </mxCell>
        <mxCell id="hAA6BeROHM1rtKqDLcVv-21" value="EP" style="rounded=0;whiteSpace=wrap;html=1;labelBackgroundColor=none;strokeColor=#b85450;strokeWidth=1;fontSize=16;fillColor=#f8cecc;gradientColor=#ea6b66;" vertex="1" parent="hAA6BeROHM1rtKqDLcVv-18">
          <mxGeometry x="110" y="10" width="40" height="40" as="geometry" />
        </mxCell>
        <mxCell id="hAA6BeROHM1rtKqDLcVv-22" value="EP" style="rounded=0;whiteSpace=wrap;html=1;labelBackgroundColor=none;strokeColor=#b85450;strokeWidth=1;fontSize=16;fillColor=#f8cecc;gradientColor=#ea6b66;" vertex="1" parent="hAA6BeROHM1rtKqDLcVv-18">
          <mxGeometry x="160" y="10" width="40" height="40" as="geometry" />
        </mxCell>
        <mxCell id="hAA6BeROHM1rtKqDLcVv-23" value="EP" style="rounded=0;whiteSpace=wrap;html=1;labelBackgroundColor=none;strokeColor=#b85450;strokeWidth=1;fontSize=16;fillColor=#f8cecc;gradientColor=#ea6b66;" vertex="1" parent="hAA6BeROHM1rtKqDLcVv-18">
          <mxGeometry x="8" y="10" width="40" height="40" as="geometry" />
        </mxCell>
        <mxCell id="hAA6BeROHM1rtKqDLcVv-24" value="" style="group" vertex="1" connectable="0" parent="hAA6BeROHM1rtKqDLcVv-18">
          <mxGeometry x="20" y="70" width="172" height="40" as="geometry" />
        </mxCell>
        <mxCell id="hAA6BeROHM1rtKqDLcVv-25" value="" style="rounded=0;whiteSpace=wrap;html=1;fillColor=#f5f5f5;strokeColor=#666666;verticalAlign=middle;gradientColor=#b3b3b3;" vertex="1" parent="hAA6BeROHM1rtKqDLcVv-24">
          <mxGeometry width="172" height="40" as="geometry" />
        </mxCell>
        <mxCell id="hAA6BeROHM1rtKqDLcVv-26" value="" style="shadow=0;dashed=0;align=center;html=1;strokeWidth=1;shape=mxgraph.electrical.abstract.mux2;flipV=0;direction=east;flipH=0;fillColor=#fad9d5;strokeColor=#ae4132;" vertex="1" parent="hAA6BeROHM1rtKqDLcVv-24">
          <mxGeometry x="8" y="6.666666666666668" width="32" height="26.66666666666667" as="geometry" />
        </mxCell>
        <mxCell id="hAA6BeROHM1rtKqDLcVv-27" value="" style="shadow=0;dashed=0;align=center;html=1;strokeWidth=1;shape=mxgraph.electrical.abstract.mux2;flipV=0;direction=east;flipH=0;fillColor=#fad9d5;strokeColor=#ae4132;" vertex="1" parent="hAA6BeROHM1rtKqDLcVv-24">
          <mxGeometry x="52" y="6.666666666666668" width="32" height="26.66666666666667" as="geometry" />
        </mxCell>
        <mxCell id="hAA6BeROHM1rtKqDLcVv-28" value="" style="shadow=0;dashed=0;align=center;html=1;strokeWidth=1;shape=mxgraph.electrical.abstract.mux2;flipV=0;direction=east;flipH=0;fillColor=#fad9d5;strokeColor=#ae4132;" vertex="1" parent="hAA6BeROHM1rtKqDLcVv-24">
          <mxGeometry x="92" y="6.666666666666668" width="32" height="26.66666666666667" as="geometry" />
        </mxCell>
        <mxCell id="hAA6BeROHM1rtKqDLcVv-29" value="" style="shadow=0;dashed=0;align=center;html=1;strokeWidth=1;shape=mxgraph.electrical.abstract.mux2;flipV=0;direction=east;flipH=0;fillColor=#fad9d5;strokeColor=#ae4132;" vertex="1" parent="hAA6BeROHM1rtKqDLcVv-24">
          <mxGeometry x="132" y="6.666666666666668" width="32" height="26.66666666666667" as="geometry" />
        </mxCell>
        <mxCell id="hAA6BeROHM1rtKqDLcVv-30" style="edgeStyle=orthogonalEdgeStyle;rounded=0;orthogonalLoop=1;jettySize=auto;html=1;entryX=0.349;entryY=0;entryDx=0;entryDy=0;entryPerimeter=0;labelBackgroundColor=none;strokeColor=#FF0080;strokeWidth=1;fontSize=16;fontColor=#000000;startArrow=classic;startFill=1;endArrow=classic;endFill=1;" edge="1" parent="hAA6BeROHM1rtKqDLcVv-18" source="hAA6BeROHM1rtKqDLcVv-20" target="hAA6BeROHM1rtKqDLcVv-25">
          <mxGeometry relative="1" as="geometry" />
        </mxCell>
        <mxCell id="hAA6BeROHM1rtKqDLcVv-31" style="edgeStyle=orthogonalEdgeStyle;rounded=0;orthogonalLoop=1;jettySize=auto;html=1;entryX=0.64;entryY=-0.014;entryDx=0;entryDy=0;entryPerimeter=0;labelBackgroundColor=none;strokeColor=#FF0080;strokeWidth=1;fontSize=16;fontColor=#000000;startArrow=classic;startFill=1;endArrow=classic;endFill=1;" edge="1" parent="hAA6BeROHM1rtKqDLcVv-18" source="hAA6BeROHM1rtKqDLcVv-21" target="hAA6BeROHM1rtKqDLcVv-25">
          <mxGeometry relative="1" as="geometry" />
        </mxCell>
        <mxCell id="hAA6BeROHM1rtKqDLcVv-32" style="edgeStyle=orthogonalEdgeStyle;rounded=0;orthogonalLoop=1;jettySize=auto;html=1;entryX=0.93;entryY=-0.006;entryDx=0;entryDy=0;entryPerimeter=0;labelBackgroundColor=none;strokeColor=#FF0080;strokeWidth=1;fontSize=16;fontColor=#000000;startArrow=classic;startFill=1;endArrow=classic;endFill=1;" edge="1" parent="hAA6BeROHM1rtKqDLcVv-18" source="hAA6BeROHM1rtKqDLcVv-22" target="hAA6BeROHM1rtKqDLcVv-25">
          <mxGeometry relative="1" as="geometry" />
        </mxCell>
        <mxCell id="hAA6BeROHM1rtKqDLcVv-33" style="rounded=0;orthogonalLoop=1;jettySize=auto;html=1;labelBackgroundColor=none;strokeColor=#FF0080;strokeWidth=1;fontSize=16;fontColor=#000000;startArrow=classic;startFill=1;endArrow=classic;endFill=1;entryX=0.047;entryY=0.002;entryDx=0;entryDy=0;entryPerimeter=0;" edge="1" parent="hAA6BeROHM1rtKqDLcVv-18" source="hAA6BeROHM1rtKqDLcVv-23" target="hAA6BeROHM1rtKqDLcVv-25">
          <mxGeometry relative="1" as="geometry" />
        </mxCell>
        <mxCell id="hAA6BeROHM1rtKqDLcVv-34" value="" style="group" vertex="1" connectable="0" parent="1">
          <mxGeometry x="1840" y="170" width="172" height="40" as="geometry" />
        </mxCell>
        <mxCell id="hAA6BeROHM1rtKqDLcVv-35" value="" style="rounded=0;whiteSpace=wrap;html=1;fillColor=#f5f5f5;strokeColor=#666666;verticalAlign=middle;gradientColor=#b3b3b3;" vertex="1" parent="hAA6BeROHM1rtKqDLcVv-34">
          <mxGeometry width="172" height="40" as="geometry" />
        </mxCell>
        <mxCell id="hAA6BeROHM1rtKqDLcVv-36" value="" style="shadow=0;dashed=0;align=center;html=1;strokeWidth=1;shape=mxgraph.electrical.abstract.mux2;flipV=0;direction=east;flipH=0;fillColor=#fad9d5;strokeColor=#ae4132;" vertex="1" parent="hAA6BeROHM1rtKqDLcVv-34">
          <mxGeometry x="8" y="6.666666666666668" width="32" height="26.66666666666667" as="geometry" />
        </mxCell>
        <mxCell id="hAA6BeROHM1rtKqDLcVv-37" value="" style="shadow=0;dashed=0;align=center;html=1;strokeWidth=1;shape=mxgraph.electrical.abstract.mux2;flipV=0;direction=east;flipH=0;fillColor=#fad9d5;strokeColor=#ae4132;" vertex="1" parent="hAA6BeROHM1rtKqDLcVv-34">
          <mxGeometry x="52" y="6.666666666666668" width="32" height="26.66666666666667" as="geometry" />
        </mxCell>
        <mxCell id="hAA6BeROHM1rtKqDLcVv-38" value="" style="shadow=0;dashed=0;align=center;html=1;strokeWidth=1;shape=mxgraph.electrical.abstract.mux2;flipV=0;direction=east;flipH=0;fillColor=#fad9d5;strokeColor=#ae4132;" vertex="1" parent="hAA6BeROHM1rtKqDLcVv-34">
          <mxGeometry x="92" y="6.666666666666668" width="32" height="26.66666666666667" as="geometry" />
        </mxCell>
        <mxCell id="hAA6BeROHM1rtKqDLcVv-39" value="" style="shadow=0;dashed=0;align=center;html=1;strokeWidth=1;shape=mxgraph.electrical.abstract.mux2;flipV=0;direction=east;flipH=0;fillColor=#fad9d5;strokeColor=#ae4132;" vertex="1" parent="hAA6BeROHM1rtKqDLcVv-34">
          <mxGeometry x="132" y="6.666666666666668" width="32" height="26.66666666666667" as="geometry" />
        </mxCell>
        <mxCell id="hAA6BeROHM1rtKqDLcVv-40" value="" style="group" vertex="1" connectable="0" parent="1">
          <mxGeometry x="1710" y="230" width="210" height="120" as="geometry" />
        </mxCell>
        <mxCell id="hAA6BeROHM1rtKqDLcVv-41" value="" style="rounded=0;whiteSpace=wrap;html=1;labelBackgroundColor=none;strokeColor=#000000;strokeWidth=1;fontSize=16;fontColor=#000000;dashed=1;" vertex="1" parent="hAA6BeROHM1rtKqDLcVv-40">
          <mxGeometry width="210" height="120" as="geometry" />
        </mxCell>
        <mxCell id="hAA6BeROHM1rtKqDLcVv-42" value="EP" style="rounded=0;whiteSpace=wrap;html=1;labelBackgroundColor=none;strokeColor=#b85450;strokeWidth=1;fontSize=16;fillColor=#f8cecc;gradientColor=#ea6b66;" vertex="1" parent="hAA6BeROHM1rtKqDLcVv-40">
          <mxGeometry x="60" y="10" width="40" height="40" as="geometry" />
        </mxCell>
        <mxCell id="hAA6BeROHM1rtKqDLcVv-43" value="EP" style="rounded=0;whiteSpace=wrap;html=1;labelBackgroundColor=none;strokeColor=#b85450;strokeWidth=1;fontSize=16;fillColor=#f8cecc;gradientColor=#ea6b66;" vertex="1" parent="hAA6BeROHM1rtKqDLcVv-40">
          <mxGeometry x="110" y="10" width="40" height="40" as="geometry" />
        </mxCell>
        <mxCell id="hAA6BeROHM1rtKqDLcVv-44" value="EP" style="rounded=0;whiteSpace=wrap;html=1;labelBackgroundColor=none;strokeColor=#b85450;strokeWidth=1;fontSize=16;fillColor=#f8cecc;gradientColor=#ea6b66;" vertex="1" parent="hAA6BeROHM1rtKqDLcVv-40">
          <mxGeometry x="160" y="10" width="40" height="40" as="geometry" />
        </mxCell>
        <mxCell id="hAA6BeROHM1rtKqDLcVv-45" value="EP" style="rounded=0;whiteSpace=wrap;html=1;labelBackgroundColor=none;strokeColor=#b85450;strokeWidth=1;fontSize=16;fillColor=#f8cecc;gradientColor=#ea6b66;" vertex="1" parent="hAA6BeROHM1rtKqDLcVv-40">
          <mxGeometry x="8" y="10" width="40" height="40" as="geometry" />
        </mxCell>
        <mxCell id="hAA6BeROHM1rtKqDLcVv-46" value="" style="group" vertex="1" connectable="0" parent="hAA6BeROHM1rtKqDLcVv-40">
          <mxGeometry x="20" y="70" width="172" height="40" as="geometry" />
        </mxCell>
        <mxCell id="hAA6BeROHM1rtKqDLcVv-47" value="" style="rounded=0;whiteSpace=wrap;html=1;fillColor=#f5f5f5;strokeColor=#666666;verticalAlign=middle;gradientColor=#b3b3b3;" vertex="1" parent="hAA6BeROHM1rtKqDLcVv-46">
          <mxGeometry width="172" height="40" as="geometry" />
        </mxCell>
        <mxCell id="hAA6BeROHM1rtKqDLcVv-48" value="" style="shadow=0;dashed=0;align=center;html=1;strokeWidth=1;shape=mxgraph.electrical.abstract.mux2;flipV=0;direction=east;flipH=0;fillColor=#fad9d5;strokeColor=#ae4132;" vertex="1" parent="hAA6BeROHM1rtKqDLcVv-46">
          <mxGeometry x="8" y="6.666666666666668" width="32" height="26.66666666666667" as="geometry" />
        </mxCell>
        <mxCell id="hAA6BeROHM1rtKqDLcVv-49" value="" style="shadow=0;dashed=0;align=center;html=1;strokeWidth=1;shape=mxgraph.electrical.abstract.mux2;flipV=0;direction=east;flipH=0;fillColor=#fad9d5;strokeColor=#ae4132;" vertex="1" parent="hAA6BeROHM1rtKqDLcVv-46">
          <mxGeometry x="52" y="6.666666666666668" width="32" height="26.66666666666667" as="geometry" />
        </mxCell>
        <mxCell id="hAA6BeROHM1rtKqDLcVv-50" value="" style="shadow=0;dashed=0;align=center;html=1;strokeWidth=1;shape=mxgraph.electrical.abstract.mux2;flipV=0;direction=east;flipH=0;fillColor=#fad9d5;strokeColor=#ae4132;" vertex="1" parent="hAA6BeROHM1rtKqDLcVv-46">
          <mxGeometry x="92" y="6.666666666666668" width="32" height="26.66666666666667" as="geometry" />
        </mxCell>
        <mxCell id="hAA6BeROHM1rtKqDLcVv-51" value="" style="shadow=0;dashed=0;align=center;html=1;strokeWidth=1;shape=mxgraph.electrical.abstract.mux2;flipV=0;direction=east;flipH=0;fillColor=#fad9d5;strokeColor=#ae4132;" vertex="1" parent="hAA6BeROHM1rtKqDLcVv-46">
          <mxGeometry x="132" y="6.666666666666668" width="32" height="26.66666666666667" as="geometry" />
        </mxCell>
        <mxCell id="hAA6BeROHM1rtKqDLcVv-52" style="edgeStyle=orthogonalEdgeStyle;rounded=0;orthogonalLoop=1;jettySize=auto;html=1;entryX=0.349;entryY=0;entryDx=0;entryDy=0;entryPerimeter=0;labelBackgroundColor=none;strokeColor=#FF0080;strokeWidth=1;fontSize=16;fontColor=#000000;startArrow=classic;startFill=1;endArrow=classic;endFill=1;" edge="1" parent="hAA6BeROHM1rtKqDLcVv-40" source="hAA6BeROHM1rtKqDLcVv-42" target="hAA6BeROHM1rtKqDLcVv-47">
          <mxGeometry relative="1" as="geometry" />
        </mxCell>
        <mxCell id="hAA6BeROHM1rtKqDLcVv-53" style="edgeStyle=orthogonalEdgeStyle;rounded=0;orthogonalLoop=1;jettySize=auto;html=1;entryX=0.64;entryY=-0.014;entryDx=0;entryDy=0;entryPerimeter=0;labelBackgroundColor=none;strokeColor=#FF0080;strokeWidth=1;fontSize=16;fontColor=#000000;startArrow=classic;startFill=1;endArrow=classic;endFill=1;" edge="1" parent="hAA6BeROHM1rtKqDLcVv-40" source="hAA6BeROHM1rtKqDLcVv-43" target="hAA6BeROHM1rtKqDLcVv-47">
          <mxGeometry relative="1" as="geometry" />
        </mxCell>
        <mxCell id="hAA6BeROHM1rtKqDLcVv-54" style="edgeStyle=orthogonalEdgeStyle;rounded=0;orthogonalLoop=1;jettySize=auto;html=1;entryX=0.93;entryY=-0.006;entryDx=0;entryDy=0;entryPerimeter=0;labelBackgroundColor=none;strokeColor=#FF0080;strokeWidth=1;fontSize=16;fontColor=#000000;startArrow=classic;startFill=1;endArrow=classic;endFill=1;" edge="1" parent="hAA6BeROHM1rtKqDLcVv-40" source="hAA6BeROHM1rtKqDLcVv-44" target="hAA6BeROHM1rtKqDLcVv-47">
          <mxGeometry relative="1" as="geometry" />
        </mxCell>
        <mxCell id="hAA6BeROHM1rtKqDLcVv-55" style="rounded=0;orthogonalLoop=1;jettySize=auto;html=1;labelBackgroundColor=none;strokeColor=#FF0080;strokeWidth=1;fontSize=16;fontColor=#000000;startArrow=classic;startFill=1;endArrow=classic;endFill=1;entryX=0.047;entryY=0.002;entryDx=0;entryDy=0;entryPerimeter=0;" edge="1" parent="hAA6BeROHM1rtKqDLcVv-40" source="hAA6BeROHM1rtKqDLcVv-45" target="hAA6BeROHM1rtKqDLcVv-47">
          <mxGeometry relative="1" as="geometry" />
        </mxCell>
        <mxCell id="hAA6BeROHM1rtKqDLcVv-56" style="edgeStyle=none;rounded=0;orthogonalLoop=1;jettySize=auto;html=1;exitX=0;exitY=0.5;exitDx=0;exitDy=0;strokeColor=#FF3399;fontSize=14;fontColor=#FF3399;startArrow=classic;startFill=1;endArrow=classic;endFill=1;shape=flexArrow;width=6.666666666666667;endSize=5.56;startWidth=10.222222222222221;startSize=5.56;endWidth=10.222222222222221;" edge="1" parent="hAA6BeROHM1rtKqDLcVv-40">
          <mxGeometry relative="1" as="geometry">
            <mxPoint x="-39.161764705882206" y="89.66705882352954" as="targetPoint" />
            <mxPoint x="19.999999999999773" y="90.02000000000004" as="sourcePoint" />
          </mxGeometry>
        </mxCell>
        <mxCell id="hAA6BeROHM1rtKqDLcVv-57" value="" style="group" vertex="1" connectable="0" parent="1">
          <mxGeometry x="1930" y="230" width="210" height="120" as="geometry" />
        </mxCell>
        <mxCell id="hAA6BeROHM1rtKqDLcVv-58" value="" style="rounded=0;whiteSpace=wrap;html=1;labelBackgroundColor=none;strokeColor=#000000;strokeWidth=1;fontSize=16;fontColor=#000000;dashed=1;" vertex="1" parent="hAA6BeROHM1rtKqDLcVv-57">
          <mxGeometry width="210" height="120" as="geometry" />
        </mxCell>
        <mxCell id="hAA6BeROHM1rtKqDLcVv-59" value="EP" style="rounded=0;whiteSpace=wrap;html=1;labelBackgroundColor=none;strokeColor=#b85450;strokeWidth=1;fontSize=16;fillColor=#f8cecc;gradientColor=#ea6b66;" vertex="1" parent="hAA6BeROHM1rtKqDLcVv-57">
          <mxGeometry x="60" y="10" width="40" height="40" as="geometry" />
        </mxCell>
        <mxCell id="hAA6BeROHM1rtKqDLcVv-60" value="EP" style="rounded=0;whiteSpace=wrap;html=1;labelBackgroundColor=none;strokeColor=#b85450;strokeWidth=1;fontSize=16;fillColor=#f8cecc;gradientColor=#ea6b66;" vertex="1" parent="hAA6BeROHM1rtKqDLcVv-57">
          <mxGeometry x="110" y="10" width="40" height="40" as="geometry" />
        </mxCell>
        <mxCell id="hAA6BeROHM1rtKqDLcVv-61" value="EP" style="rounded=0;whiteSpace=wrap;html=1;labelBackgroundColor=none;strokeColor=#b85450;strokeWidth=1;fontSize=16;fillColor=#f8cecc;gradientColor=#ea6b66;" vertex="1" parent="hAA6BeROHM1rtKqDLcVv-57">
          <mxGeometry x="160" y="10" width="40" height="40" as="geometry" />
        </mxCell>
        <mxCell id="hAA6BeROHM1rtKqDLcVv-62" value="EP" style="rounded=0;whiteSpace=wrap;html=1;labelBackgroundColor=none;strokeColor=#b85450;strokeWidth=1;fontSize=16;fillColor=#f8cecc;gradientColor=#ea6b66;" vertex="1" parent="hAA6BeROHM1rtKqDLcVv-57">
          <mxGeometry x="8" y="10" width="40" height="40" as="geometry" />
        </mxCell>
        <mxCell id="hAA6BeROHM1rtKqDLcVv-63" value="" style="group" vertex="1" connectable="0" parent="hAA6BeROHM1rtKqDLcVv-57">
          <mxGeometry x="20" y="70" width="172" height="40" as="geometry" />
        </mxCell>
        <mxCell id="hAA6BeROHM1rtKqDLcVv-64" value="" style="rounded=0;whiteSpace=wrap;html=1;fillColor=#f5f5f5;strokeColor=#666666;verticalAlign=middle;gradientColor=#b3b3b3;" vertex="1" parent="hAA6BeROHM1rtKqDLcVv-63">
          <mxGeometry width="172" height="40" as="geometry" />
        </mxCell>
        <mxCell id="hAA6BeROHM1rtKqDLcVv-65" value="" style="shadow=0;dashed=0;align=center;html=1;strokeWidth=1;shape=mxgraph.electrical.abstract.mux2;flipV=0;direction=east;flipH=0;fillColor=#fad9d5;strokeColor=#ae4132;" vertex="1" parent="hAA6BeROHM1rtKqDLcVv-63">
          <mxGeometry x="8" y="6.666666666666668" width="32" height="26.66666666666667" as="geometry" />
        </mxCell>
        <mxCell id="hAA6BeROHM1rtKqDLcVv-66" value="" style="shadow=0;dashed=0;align=center;html=1;strokeWidth=1;shape=mxgraph.electrical.abstract.mux2;flipV=0;direction=east;flipH=0;fillColor=#fad9d5;strokeColor=#ae4132;" vertex="1" parent="hAA6BeROHM1rtKqDLcVv-63">
          <mxGeometry x="52" y="6.666666666666668" width="32" height="26.66666666666667" as="geometry" />
        </mxCell>
        <mxCell id="hAA6BeROHM1rtKqDLcVv-67" value="" style="shadow=0;dashed=0;align=center;html=1;strokeWidth=1;shape=mxgraph.electrical.abstract.mux2;flipV=0;direction=east;flipH=0;fillColor=#fad9d5;strokeColor=#ae4132;" vertex="1" parent="hAA6BeROHM1rtKqDLcVv-63">
          <mxGeometry x="92" y="6.666666666666668" width="32" height="26.66666666666667" as="geometry" />
        </mxCell>
        <mxCell id="hAA6BeROHM1rtKqDLcVv-68" value="" style="shadow=0;dashed=0;align=center;html=1;strokeWidth=1;shape=mxgraph.electrical.abstract.mux2;flipV=0;direction=east;flipH=0;fillColor=#fad9d5;strokeColor=#ae4132;" vertex="1" parent="hAA6BeROHM1rtKqDLcVv-63">
          <mxGeometry x="132" y="6.666666666666668" width="32" height="26.66666666666667" as="geometry" />
        </mxCell>
        <mxCell id="hAA6BeROHM1rtKqDLcVv-69" style="edgeStyle=orthogonalEdgeStyle;rounded=0;orthogonalLoop=1;jettySize=auto;html=1;entryX=0.349;entryY=0;entryDx=0;entryDy=0;entryPerimeter=0;labelBackgroundColor=none;strokeColor=#FF0080;strokeWidth=1;fontSize=16;fontColor=#000000;startArrow=classic;startFill=1;endArrow=classic;endFill=1;" edge="1" parent="hAA6BeROHM1rtKqDLcVv-57" source="hAA6BeROHM1rtKqDLcVv-59" target="hAA6BeROHM1rtKqDLcVv-64">
          <mxGeometry relative="1" as="geometry" />
        </mxCell>
        <mxCell id="hAA6BeROHM1rtKqDLcVv-70" style="edgeStyle=orthogonalEdgeStyle;rounded=0;orthogonalLoop=1;jettySize=auto;html=1;entryX=0.64;entryY=-0.014;entryDx=0;entryDy=0;entryPerimeter=0;labelBackgroundColor=none;strokeColor=#FF0080;strokeWidth=1;fontSize=16;fontColor=#000000;startArrow=classic;startFill=1;endArrow=classic;endFill=1;" edge="1" parent="hAA6BeROHM1rtKqDLcVv-57" source="hAA6BeROHM1rtKqDLcVv-60" target="hAA6BeROHM1rtKqDLcVv-64">
          <mxGeometry relative="1" as="geometry" />
        </mxCell>
        <mxCell id="hAA6BeROHM1rtKqDLcVv-71" style="edgeStyle=orthogonalEdgeStyle;rounded=0;orthogonalLoop=1;jettySize=auto;html=1;entryX=0.93;entryY=-0.006;entryDx=0;entryDy=0;entryPerimeter=0;labelBackgroundColor=none;strokeColor=#FF0080;strokeWidth=1;fontSize=16;fontColor=#000000;startArrow=classic;startFill=1;endArrow=classic;endFill=1;" edge="1" parent="hAA6BeROHM1rtKqDLcVv-57" source="hAA6BeROHM1rtKqDLcVv-61" target="hAA6BeROHM1rtKqDLcVv-64">
          <mxGeometry relative="1" as="geometry" />
        </mxCell>
        <mxCell id="hAA6BeROHM1rtKqDLcVv-72" style="rounded=0;orthogonalLoop=1;jettySize=auto;html=1;labelBackgroundColor=none;strokeColor=#FF0080;strokeWidth=1;fontSize=16;fontColor=#000000;startArrow=classic;startFill=1;endArrow=classic;endFill=1;entryX=0.047;entryY=0.002;entryDx=0;entryDy=0;entryPerimeter=0;" edge="1" parent="hAA6BeROHM1rtKqDLcVv-57" source="hAA6BeROHM1rtKqDLcVv-62" target="hAA6BeROHM1rtKqDLcVv-64">
          <mxGeometry relative="1" as="geometry" />
        </mxCell>
        <mxCell id="hAA6BeROHM1rtKqDLcVv-73" style="edgeStyle=orthogonalEdgeStyle;rounded=0;orthogonalLoop=1;jettySize=auto;html=1;entryX=0;entryY=0.25;entryDx=0;entryDy=0;labelBackgroundColor=none;strokeColor=#FF0080;strokeWidth=1;fontSize=16;fontColor=#000000;startArrow=classic;startFill=1;endArrow=classic;endFill=1;" edge="1" parent="1" source="hAA6BeROHM1rtKqDLcVv-3" target="hAA6BeROHM1rtKqDLcVv-35">
          <mxGeometry relative="1" as="geometry" />
        </mxCell>
        <mxCell id="hAA6BeROHM1rtKqDLcVv-74" style="edgeStyle=orthogonalEdgeStyle;rounded=0;orthogonalLoop=1;jettySize=auto;html=1;entryX=0;entryY=0.75;entryDx=0;entryDy=0;labelBackgroundColor=none;strokeColor=#FF0080;strokeWidth=1;fontSize=16;fontColor=#000000;startArrow=classic;startFill=1;endArrow=classic;endFill=1;" edge="1" parent="1" source="hAA6BeROHM1rtKqDLcVv-41" target="hAA6BeROHM1rtKqDLcVv-35">
          <mxGeometry relative="1" as="geometry" />
        </mxCell>
        <mxCell id="hAA6BeROHM1rtKqDLcVv-75" style="edgeStyle=orthogonalEdgeStyle;rounded=0;orthogonalLoop=1;jettySize=auto;html=1;entryX=1;entryY=0.25;entryDx=0;entryDy=0;labelBackgroundColor=none;strokeColor=#FF0080;strokeWidth=1;fontSize=16;fontColor=#000000;startArrow=classic;startFill=1;endArrow=classic;endFill=1;" edge="1" parent="1" source="hAA6BeROHM1rtKqDLcVv-19" target="hAA6BeROHM1rtKqDLcVv-35">
          <mxGeometry relative="1" as="geometry" />
        </mxCell>
        <mxCell id="hAA6BeROHM1rtKqDLcVv-76" style="edgeStyle=orthogonalEdgeStyle;rounded=0;orthogonalLoop=1;jettySize=auto;html=1;entryX=1;entryY=0.75;entryDx=0;entryDy=0;labelBackgroundColor=none;strokeColor=#FF0080;strokeWidth=1;fontSize=16;fontColor=#000000;startArrow=classic;startFill=1;endArrow=classic;endFill=1;" edge="1" parent="1" source="hAA6BeROHM1rtKqDLcVv-58" target="hAA6BeROHM1rtKqDLcVv-35">
          <mxGeometry relative="1" as="geometry" />
        </mxCell>
        <mxCell id="hAA6BeROHM1rtKqDLcVv-77" style="rounded=0;orthogonalLoop=1;jettySize=auto;html=1;labelBackgroundColor=none;strokeColor=#7F00FF;strokeWidth=1;fontSize=16;fontColor=#000000;startArrow=none;startFill=0;endArrow=open;endFill=0;" edge="1" parent="1" source="hAA6BeROHM1rtKqDLcVv-78" target="hAA6BeROHM1rtKqDLcVv-22">
          <mxGeometry relative="1" as="geometry" />
        </mxCell>
        <mxCell id="hAA6BeROHM1rtKqDLcVv-78" value="仿真处理器（EP）" style="text;html=1;strokeColor=none;fillColor=none;align=center;verticalAlign=middle;whiteSpace=wrap;rounded=0;dashed=1;labelBackgroundColor=none;strokeWidth=1;fontSize=16;fontColor=#7F00FF;" vertex="1" parent="1">
          <mxGeometry x="2190" y="19" width="140" height="30" as="geometry" />
        </mxCell>
        <mxCell id="hAA6BeROHM1rtKqDLcVv-79" style="edgeStyle=none;rounded=0;orthogonalLoop=1;jettySize=auto;html=1;exitX=0;exitY=0.5;exitDx=0;exitDy=0;strokeColor=#FF3399;fontSize=14;fontColor=#FF3399;startArrow=classic;startFill=1;endArrow=classic;endFill=1;shape=flexArrow;width=6.666666666666667;endSize=5.56;startWidth=10.222222222222221;startSize=5.56;endWidth=10.222222222222221;" edge="1" parent="1">
          <mxGeometry relative="1" as="geometry">
            <mxPoint x="2119.998235294118" y="119.99705882352953" as="targetPoint" />
            <mxPoint x="2179.16" y="120.35000000000002" as="sourcePoint" />
          </mxGeometry>
        </mxCell>
        <mxCell id="hAA6BeROHM1rtKqDLcVv-80" style="edgeStyle=none;rounded=0;orthogonalLoop=1;jettySize=auto;html=1;labelBackgroundColor=none;strokeColor=#7F00FF;strokeWidth=1;fontSize=16;fontColor=#7F00FF;startArrow=none;startFill=0;endArrow=open;endFill=0;" edge="1" parent="1" source="hAA6BeROHM1rtKqDLcVv-81">
          <mxGeometry relative="1" as="geometry">
            <mxPoint x="2180" y="320" as="targetPoint" />
          </mxGeometry>
        </mxCell>
        <mxCell id="hAA6BeROHM1rtKqDLcVv-81" value="输入输出（IO）" style="text;html=1;strokeColor=none;fillColor=none;align=center;verticalAlign=middle;whiteSpace=wrap;rounded=0;fontSize=16;fontColor=#7F00FF;fontStyle=0" vertex="1" parent="1">
          <mxGeometry x="2195.5" y="330" width="124.5" height="30" as="geometry" />
        </mxCell>
        <mxCell id="hAA6BeROHM1rtKqDLcVv-82" style="edgeStyle=none;rounded=0;orthogonalLoop=1;jettySize=auto;html=1;exitX=0;exitY=0.5;exitDx=0;exitDy=0;strokeColor=#FF3399;fontSize=14;fontColor=#FF3399;startArrow=classic;startFill=1;endArrow=classic;endFill=1;shape=flexArrow;width=6.666666666666667;endSize=5.56;startWidth=10.222222222222221;startSize=5.56;endWidth=10.222222222222221;" edge="1" parent="1">
          <mxGeometry relative="1" as="geometry">
            <mxPoint x="2119.998235294118" y="319.9970588235295" as="targetPoint" />
            <mxPoint x="2179.16" y="320.35" as="sourcePoint" />
          </mxGeometry>
        </mxCell>
        <mxCell id="hAA6BeROHM1rtKqDLcVv-83" style="edgeStyle=none;rounded=0;orthogonalLoop=1;jettySize=auto;html=1;exitX=0;exitY=0.5;exitDx=0;exitDy=0;strokeColor=#FF3399;fontSize=14;fontColor=#FF3399;startArrow=classic;startFill=1;endArrow=classic;endFill=1;shape=flexArrow;width=6.666666666666667;endSize=5.56;startWidth=10.222222222222221;startSize=5.56;endWidth=10.222222222222221;" edge="1" parent="1">
          <mxGeometry relative="1" as="geometry">
            <mxPoint x="1669.9982352941174" y="119.99705882352964" as="targetPoint" />
            <mxPoint x="1729.1599999999994" y="120.35000000000002" as="sourcePoint" />
          </mxGeometry>
        </mxCell>
        <mxCell id="hAA6BeROHM1rtKqDLcVv-84" style="edgeStyle=none;rounded=0;orthogonalLoop=1;jettySize=auto;html=1;labelBackgroundColor=none;strokeColor=#7F00FF;strokeWidth=1;fontSize=16;fontColor=#7F00FF;startArrow=none;startFill=0;endArrow=open;endFill=0;" edge="1" parent="1" source="hAA6BeROHM1rtKqDLcVv-88" target="hAA6BeROHM1rtKqDLcVv-25">
          <mxGeometry relative="1" as="geometry" />
        </mxCell>
        <mxCell id="hAA6BeROHM1rtKqDLcVv-85" style="edgeStyle=none;rounded=0;orthogonalLoop=1;jettySize=auto;html=1;labelBackgroundColor=none;strokeColor=#7F00FF;strokeWidth=1;fontSize=16;fontColor=#7F00FF;startArrow=none;startFill=0;endArrow=open;endFill=0;" edge="1" parent="1" source="hAA6BeROHM1rtKqDLcVv-88" target="hAA6BeROHM1rtKqDLcVv-35">
          <mxGeometry relative="1" as="geometry">
            <mxPoint x="2020" y="190" as="targetPoint" />
          </mxGeometry>
        </mxCell>
        <mxCell id="hAA6BeROHM1rtKqDLcVv-86" style="edgeStyle=none;rounded=0;orthogonalLoop=1;jettySize=auto;html=1;labelBackgroundColor=none;strokeColor=#7F00FF;strokeWidth=1;fontSize=16;fontColor=#7F00FF;startArrow=none;startFill=0;endArrow=open;endFill=0;" edge="1" parent="1" source="hAA6BeROHM1rtKqDLcVv-88">
          <mxGeometry relative="1" as="geometry">
            <mxPoint x="2110" y="290" as="targetPoint" />
          </mxGeometry>
        </mxCell>
        <mxCell id="hAA6BeROHM1rtKqDLcVv-87" style="edgeStyle=none;rounded=0;orthogonalLoop=1;jettySize=auto;html=1;labelBackgroundColor=none;strokeColor=#7F00FF;strokeWidth=1;fontSize=16;fontColor=#7F00FF;startArrow=none;startFill=0;endArrow=open;endFill=0;" edge="1" parent="1" source="hAA6BeROHM1rtKqDLcVv-88">
          <mxGeometry relative="1" as="geometry">
            <mxPoint x="2040" y="170" as="targetPoint" />
          </mxGeometry>
        </mxCell>
        <mxCell id="hAA6BeROHM1rtKqDLcVv-88" value="互连MUX和布线" style="text;html=1;strokeColor=none;fillColor=none;align=center;verticalAlign=middle;whiteSpace=wrap;rounded=0;dashed=1;labelBackgroundColor=none;strokeWidth=1;fontSize=16;fontColor=#7F00FF;" vertex="1" parent="1">
          <mxGeometry x="2189" y="190" width="141" height="30" as="geometry" />
        </mxCell>
      </root>
    </mxGraphModel>
  </diagram>
</mxfile>
